<svg xmlns="http://www.w3.org/2000/svg" width="24" height="24" viewBox="0 0 6.35 6.35"><path d="M3.175.48A2.764 2.764 0 0 0 2.3 5.866c.139.025.189-.06.189-.134l-.004-.47c-.768.167-.93-.37-.93-.37-.126-.32-.308-.404-.308-.404-.25-.172.02-.168.02-.168.277.02.423.284.423.284.246.423.647.3.804.23a.59.59 0 0 1 .176-.37c-.614-.07-1.26-.306-1.26-1.365 0-.302.108-.549.285-.742-.028-.07-.123-.35.027-.731 0 0 .232-.075.76.283a2.64 2.64 0 0 1 1.384 0c.528-.358.76-.283.76-.283.15.38.055.661.027.731.177.193.284.44.284.742 0 1.061-.646 1.295-1.262 1.363.1.086.188.254.188.512 0 .37-.004.668-.004.758 0 .074.05.16.19.133A2.765 2.765 0 0 0 3.175.48" fill-rule="evenodd" fill="#fff"/></svg>